<?xml version="1.0" standalone="no"?>
<!DOCTYPE svg PUBLIC "-//W3C//DTD SVG 20010904//EN"
 "http://www.w3.org/TR/2001/REC-SVG-20010904/DTD/svg10.dtd">
<svg version="1.0" xmlns="http://www.w3.org/2000/svg"
 width="210.000000pt" height="140.000000pt" viewBox="0 0 210.000000 140.000000"
 preserveAspectRatio="xMidYMid meet">

<g transform="translate(0.000000,140.000000) scale(0.100000,-0.100000)"
fill="#000000" stroke="none">
<path d="M0 700 l0 -700 1050 0 1050 0 0 700 0 700 -1050 0 -1050 0 0 -700z
m883 412 c95 -55 218 -125 275 -156 56 -31 102 -59 102 -61 0 -3 -533 -306
-552 -313 -4 -2 -8 138 -8 312 0 174 2 316 5 316 3 0 83 -44 178 -98z m-115
-659 c4 -25 46 -63 69 -63 8 0 13 -7 11 -17 -2 -11 -12 -18 -26 -17 -12 0 -22
-5 -22 -13 0 -9 13 -13 40 -13 36 0 40 -2 40 -25 0 -24 -3 -25 -57 -26 -48 0
-54 -2 -36 -11 12 -6 27 -24 32 -40 9 -25 7 -33 -14 -54 -32 -32 -99 -33 -132
-2 -29 28 -29 53 1 83 l24 24 -51 3 c-44 3 -52 6 -52 23 0 16 8 21 38 23 37 3
53 22 18 22 -15 0 -39 29 -29 34 2 1 20 9 41 19 28 13 39 25 44 47 5 26 10 31
32 28 18 -2 27 -10 29 -25z m380 0 c-3 -15 -17 -19 -78 -23 l-75 -4 75 -6 c67
-4 75 -7 75 -25 0 -18 -9 -21 -75 -26 l-75 -5 78 -2 c70 -2 77 -4 77 -22 0
-19 -7 -20 -100 -20 l-100 0 0 75 0 75 101 0 c90 0 100 -2 97 -17z m160 -10
c3 -20 9 -23 53 -23 46 0 49 2 49 25 0 20 5 25 25 25 26 0 26 0 23 -82 l-3
-83 -95 0 -95 0 -3 83 c-3 82 -2 83 20 80 15 -2 24 -11 26 -25z m-113 -163 c0
-10 -12 -16 -32 -18 -30 -3 -32 -6 -35 -45 -2 -35 -7 -43 -25 -45 -21 -3 -23
1 -23 42 0 44 -1 46 -30 46 -29 0 -30 -2 -30 -45 0 -38 -3 -45 -20 -45 -17 0
-20 7 -20 45 0 45 0 45 -35 45 -28 0 -35 4 -35 20 0 20 5 20 143 18 118 -3
142 -5 142 -18z m308 -23 c12 -33 -4 -37 -144 -37 l-139 0 0 25 0 26 139 -2
c95 -1 141 -5 144 -12z"/>
<path d="M711 380 c-18 -15 -19 -20 -7 -20 9 0 16 -7 16 -15 0 -8 9 -15 20
-15 11 0 20 7 20 15 0 8 7 15 16 15 12 0 10 5 -9 20 -30 24 -26 24 -56 0z"/>
<path d="M704 225 c-9 -22 4 -35 36 -35 34 0 47 15 30 35 -16 19 -59 19 -66 0z"/>
<path d="M1310 365 c0 -11 12 -15 50 -15 38 0 50 4 50 15 0 11 -12 15 -50 15
-38 0 -50 -4 -50 -15z"/>
</g>
</svg>
