<?xml version="1.0" standalone="no"?>
<!DOCTYPE svg PUBLIC "-//W3C//DTD SVG 20010904//EN"
 "http://www.w3.org/TR/2001/REC-SVG-20010904/DTD/svg10.dtd">
<svg version="1.0" xmlns="http://www.w3.org/2000/svg"
 width="210.000000pt" height="140.000000pt" viewBox="0 0 210.000000 140.000000"
 preserveAspectRatio="xMidYMid meet">

<g transform="translate(0.000000,140.000000) scale(0.100000,-0.100000)"
fill="#000000" stroke="none">
<path d="M0 1244 l0 -156 55 48 c30 25 71 68 90 94 55 75 59 73 113 -40 l47
-99 112 0 111 -1 59 58 c33 31 72 74 87 95 43 57 56 50 109 -60 l47 -98 0
-285 0 -285 -118 -118 -117 -117 -90 0 -91 0 -64 -65 -64 -65 -58 0 -58 0 0
65 0 65 -85 0 -85 0 0 -140 0 -140 1050 0 1050 0 0 700 0 700 -1050 0 -1050 0
0 -156z m1680 -209 c0 -138 -1 -145 -20 -145 -19 0 -20 7 -20 145 0 138 1 145
20 145 19 0 20 -7 20 -145z m310 0 c0 -138 -1 -145 -20 -145 -19 0 -20 7 -20
145 0 138 1 145 20 145 19 0 20 -7 20 -145z m-645 110 c0 -18 -8 -20 -77 -23
-100 -4 -102 -22 -3 -22 68 0 75 -2 75 -20 0 -18 -7 -20 -75 -20 -43 0 -75 -4
-75 -10 0 -6 33 -10 80 -10 73 0 80 -2 80 -20 0 -19 -7 -20 -100 -20 l-100 0
0 78 c0 43 3 82 7 86 4 4 48 5 98 4 82 -3 90 -5 90 -23z m235 5 c45 -45 6
-120 -62 -120 -41 0 -92 51 -83 82 16 57 104 79 145 38z m300 0 c0 -17 -7 -20
-50 -20 -43 0 -50 3 -50 20 0 17 7 20 50 20 43 0 50 -3 50 -20z m35 -55 c0
-15 -8 -21 -33 -23 -29 -3 -31 -5 -21 -25 6 -12 23 -31 37 -43 25 -21 24 -44
-3 -44 -7 0 -27 12 -44 26 -26 21 -32 23 -37 10 -3 -8 -17 -22 -32 -32 -24
-16 -26 -16 -38 1 -11 14 -8 21 22 47 40 36 44 58 10 58 -28 0 -40 14 -32 36
5 12 22 14 88 12 75 -3 83 -5 83 -23z m-292 -84 c5 -20 -15 -31 -60 -31 -20 0
-23 -5 -23 -45 0 -38 -3 -45 -20 -45 -17 0 -20 7 -20 45 l0 45 -40 0 c-33 0
-40 3 -40 20 0 17 8 20 93 23 50 1 95 4 98 5 4 1 9 -7 12 -17z m-233 -66 l0
-25 -139 0 c-140 0 -159 5 -147 35 4 12 32 15 146 15 l140 0 0 -25z m-82 -133
c4 -43 22 -41 22 3 0 31 3 35 25 35 25 0 25 0 25 -95 0 -89 -1 -95 -20 -95
-21 0 -21 0 0 -28 55 -75 -70 -151 -141 -86 -21 19 -25 55 -9 83 13 25 64 45
95 37 24 -6 25 -4 25 34 0 22 -4 40 -10 40 -5 0 -10 -13 -10 -30 0 -25 -4 -30
-25 -30 -14 0 -25 5 -25 12 0 6 -6 4 -13 -6 -12 -16 -14 -15 -37 9 l-24 25
-27 -26 c-24 -23 -31 -25 -44 -14 -13 11 -12 16 10 42 14 16 28 47 31 69 5 32
11 39 29 39 18 0 22 -6 23 -32 1 -33 33 -87 47 -78 5 3 7 29 6 57 -3 59 4 75
27 71 11 -2 18 -15 20 -36z m360 1 c2 -24 9 -33 25 -35 33 -5 35 -38 3 -38
-23 0 -26 -4 -26 -35 0 -31 -3 -35 -25 -35 -25 0 -25 1 -25 91 0 88 1 90 23
87 17 -2 23 -11 25 -35z m232 14 c0 -29 25 -53 63 -62 19 -5 26 -12 23 -22 -3
-8 -6 -17 -6 -19 0 -12 -42 -1 -74 21 l-36 24 -36 -24 c-44 -30 -60 -31 -74
-5 -9 17 -8 20 8 20 26 0 72 38 72 59 0 24 9 31 37 31 17 0 23 -6 23 -23z
m-430 -7 c0 -16 7 -20 30 -20 24 0 30 4 30 21 0 15 5 20 23 17 21 -3 22 -8 22
-78 l0 -75 -77 -3 -78 -3 0 81 c0 79 0 80 25 80 18 0 25 -5 25 -20z m427 -100
c5 -17 14 -20 65 -20 51 0 59 -2 56 -17 -3 -16 -19 -18 -146 -21 -137 -2 -142
-2 -142 18 0 18 6 20 60 20 53 0 60 2 60 20 0 14 7 20 21 20 12 0 23 -8 26
-20z m-263 -71 c31 -24 36 -77 9 -102 -41 -36 -121 -29 -143 14 -41 75 63 144
134 88z m303 -21 c41 -38 25 -91 -32 -107 -42 -11 -73 -5 -102 22 -28 25 -29
47 -2 81 27 35 101 37 136 4z"/>
<path d="M1484 1115 c-8 -19 13 -45 36 -45 23 0 42 24 34 44 -8 21 -62 22 -70
1z"/>
<path d="M1263 623 c-7 -2 -13 -15 -13 -29 0 -28 41 -44 65 -24 36 30 -6 72
-52 53z"/>
<path d="M1470 740 c0 -16 7 -20 30 -20 23 0 30 4 30 20 0 16 -7 20 -30 20
-23 0 -30 -4 -30 -20z"/>
<path d="M1547 623 c-15 -14 -6 -52 13 -58 23 -7 60 10 60 28 0 29 -53 50 -73
30z"/>
<path d="M1834 595 c-9 -23 9 -37 42 -33 21 2 29 8 29 23 0 26 -62 35 -71 10z"/>
<path d="M167 1173 l-37 -78 71 -3 c39 -2 74 0 77 3 6 6 -31 89 -58 130 l-17
25 -36 -77z"/>
<path d="M687 1172 l-37 -77 71 -3 c39 -2 74 -1 76 2 6 5 -39 106 -60 136 -13
19 -16 15 -50 -58z"/>
<path d="M80 710 l0 -289 93 -3 92 -3 5 -58 5 -58 60 61 59 60 112 0 111 0 66
68 66 69 1 221 1 222 -336 0 -335 0 0 -290z m300 14 l0 -125 -37 3 -38 3 0
115 c0 63 1 118 3 123 2 4 19 7 38 7 l34 0 0 -126z m220 0 l0 -125 -37 3 c-35
3 -36 4 -36 41 1 20 2 75 2 122 l1 85 35 0 35 0 0 -126z"/>
</g>
</svg>
